<svg width="20" height="20" viewBox="0 0 20 20" fill="none" xmlns="http://www.w3.org/2000/svg">
<path d="M9.53505 0.833336C11.8107 0.833336 13.6667 2.6575 13.6667 4.90334V9.29417H8.07078C7.66974 9.29417 7.35263 9.60584 7.35263 10C7.35263 10.385 7.66974 10.7058 8.07078 10.7058H13.6667V15.0875C13.6667 17.3333 11.8107 19.1667 9.51639 19.1667H4.97436C2.68936 19.1667 0.833374 17.3425 0.833374 15.0967V4.9125C0.833374 2.6575 2.69868 0.833336 4.98369 0.833336H9.53505ZM15.9952 6.83769C16.2702 6.55352 16.7194 6.55352 16.9944 6.82852L19.6711 9.49602C19.8086 9.63352 19.8819 9.80769 19.8819 10.0002C19.8819 10.1835 19.8086 10.3669 19.6711 10.4952L16.9944 13.1627C16.8569 13.3002 16.6736 13.3735 16.4994 13.3735C16.3161 13.3735 16.1327 13.3002 15.9952 13.1627C15.7202 12.8877 15.7202 12.4385 15.9952 12.1635L17.4619 10.706H13.6669V9.29435H17.4619L15.9952 7.83685C15.7202 7.56185 15.7202 7.11269 15.9952 6.83769Z" fill="#EFEEE0"/>
</svg>
