<svg width="22" height="22" viewBox="0 0 22 22" fill="none" xmlns="http://www.w3.org/2000/svg">
<path d="M15.5834 4.35416H14.6667V2.98832C14.6667 2.22749 14.0434 1.60416 13.2825 1.60416H8.71754C7.95671 1.60416 7.33337 2.22749 7.33337 2.98832V4.35416H6.41671C5.40837 4.35416 4.58337 5.17916 4.58337 6.18749V6.30666C4.87671 6.22416 5.17921 6.18749 5.50004 6.18749H16.5C16.8209 6.18749 17.1234 6.22416 17.4167 6.30666V6.18749C17.4167 5.17916 16.5917 4.35416 15.5834 4.35416Z" fill="#EFEEE0" fill-opacity="0.25"/>
<path d="M12.7692 15.5192C12.4759 15.5192 12.2467 15.7575 12.2467 16.0417C12.2467 16.3258 12.485 16.5642 12.7692 16.5642C13.0534 16.5642 13.2917 16.3258 13.2917 16.0417C13.2917 15.7575 13.0534 15.5192 12.7692 15.5192Z" fill="#EFEEE0" fill-opacity="0.25"/>
<path d="M8.31413 16.3258C8.02079 16.3258 7.79163 16.5642 7.79163 16.8483C7.79163 17.1325 8.02996 17.3708 8.31413 17.3708C8.59829 17.3708 8.83663 17.1325 8.83663 16.8483C8.83663 16.5642 8.60746 16.3258 8.31413 16.3258Z" fill="#EFEEE0" fill-opacity="0.25"/>
<path d="M17.4167 7.68167C17.1234 7.59917 16.8209 7.5625 16.5 7.5625H5.50004C5.17921 7.5625 4.87671 7.59917 4.58337 7.68167C3.00671 8.09417 1.83337 9.53333 1.83337 11.2292V16.7292C1.83337 18.7458 3.48337 20.3958 5.50004 20.3958H16.5C18.5167 20.3958 20.1667 18.7458 20.1667 16.7292V11.2292C20.1667 9.53333 18.9934 8.09417 17.4167 7.68167ZM14.6667 12.1733V16.0417C14.6667 17.0867 13.8142 17.9392 12.7692 17.9392C11.7242 17.9392 10.8717 17.0867 10.8717 16.0417C10.8717 14.9967 11.7242 14.1442 12.7692 14.1442C12.9525 14.1442 13.1267 14.1808 13.2917 14.2267V13.0717L10.2209 13.9058V16.8483C10.2209 16.8575 10.2209 16.8667 10.2117 16.8758C10.2025 17.9117 9.35004 18.755 8.31421 18.755C7.26921 18.755 6.41671 17.9025 6.41671 16.8483C6.41671 15.7942 7.26921 14.9508 8.31421 14.9508C8.49754 14.9508 8.67171 14.9875 8.84587 15.0333V13.3833V11.9625C8.84587 11.1742 9.34087 10.5325 10.0925 10.3308L12.5217 9.66167C13.3009 9.45083 13.7959 9.6525 14.0709 9.86333C14.3459 10.0742 14.6667 10.4867 14.6667 11.3025V12.1733Z" fill="#EFEEE0" fill-opacity="0.25"/>
</svg>
