<svg width="22" height="22" viewBox="0 0 22 22" fill="none" xmlns="http://www.w3.org/2000/svg">
<g opacity="0.25">
<path d="M11 1.83333C8.59837 1.83333 6.64587 3.78583 6.64587 6.18749C6.64587 8.54333 8.48837 10.45 10.89 10.5325C10.9634 10.5233 11.0367 10.5233 11.0917 10.5325C11.11 10.5325 11.1192 10.5325 11.1375 10.5325C11.1467 10.5325 11.1467 10.5325 11.1559 10.5325C13.5025 10.45 15.345 8.54333 15.3542 6.18749C15.3542 3.78583 13.4017 1.83333 11 1.83333Z" fill="#EFEEE0"/>
<path d="M15.6566 12.9708C13.0991 11.2658 8.9283 11.2658 6.35246 12.9708C5.1883 13.75 4.54663 14.8042 4.54663 15.9317C4.54663 17.0592 5.1883 18.1042 6.3433 18.8742C7.62663 19.7358 9.3133 20.1667 11 20.1667C12.6866 20.1667 14.3733 19.7358 15.6566 18.8742C16.8116 18.095 17.4533 17.05 17.4533 15.9133C17.4441 14.7858 16.8116 13.7408 15.6566 12.9708Z" fill="#EFEEE0"/>
</g>
</svg>
