<svg width="22" height="22" viewBox="0 0 22 22" fill="none" xmlns="http://www.w3.org/2000/svg">
<path d="M7.10413 1.83333V4.58333H6.41663C6.17829 4.58333 5.94913 4.5925 5.72913 4.62916V1.83333C5.72913 1.45749 6.04079 1.14583 6.41663 1.14583C6.79246 1.14583 7.10413 1.45749 7.10413 1.83333Z" fill="#EFEEE0" fill-opacity="0.25"/>
<path d="M15.5834 4.58333H6.41671C6.17837 4.58333 5.94921 4.5925 5.72921 4.62916C3.36421 4.90416 1.83337 6.65499 1.83337 9.16666V15.5833C1.83337 18.3333 3.66671 20.1667 6.41671 20.1667H15.5834C18.3334 20.1667 20.1667 18.3333 20.1667 15.5833V9.16666C20.1667 6.41666 18.3334 4.58333 15.5834 4.58333ZM7.22337 14.6667C5.95837 14.6667 4.93171 13.64 4.93171 12.375C4.93171 11.11 5.95837 10.0833 7.22337 10.0833C8.48837 10.0833 9.51504 11.11 9.51504 12.375C9.51504 13.64 8.48837 14.6667 7.22337 14.6667ZM13.1817 14.8958H12.7234C12.3475 14.8958 12.0359 14.5842 12.0359 14.2083C12.0359 13.8325 12.3475 13.5208 12.7234 13.5208H13.1817C13.5575 13.5208 13.8692 13.8325 13.8692 14.2083C13.8692 14.5842 13.5575 14.8958 13.1817 14.8958ZM16.39 14.8958H15.9317C15.5559 14.8958 15.2442 14.5842 15.2442 14.2083C15.2442 13.8325 15.5559 13.5208 15.9317 13.5208H16.39C16.7659 13.5208 17.0775 13.8325 17.0775 14.2083C17.0775 14.5842 16.7659 14.8958 16.39 14.8958ZM16.39 11.2292H12.7234C12.3475 11.2292 12.0359 10.9175 12.0359 10.5417C12.0359 10.1658 12.3475 9.85416 12.7234 9.85416H16.39C16.7659 9.85416 17.0775 10.1658 17.0775 10.5417C17.0775 10.9175 16.7659 11.2292 16.39 11.2292Z" fill="#EFEEE0" fill-opacity="0.25"/>
</svg>
