<svg width="22" height="22" viewBox="0 0 22 22" fill="none" xmlns="http://www.w3.org/2000/svg">
<path d="M10.3125 7.205H1.83337V14.8408C1.83337 14.8958 1.83337 14.9508 1.84254 14.9967H10.3125V7.205Z" fill="#EFEEE0" fill-opacity="0.25"/>
<path d="M7.04919 5.83H10.3125V1.83333H7.07669V5.71999C7.07669 5.75666 7.05836 5.79333 7.04919 5.83Z" fill="#EFEEE0" fill-opacity="0.25"/>
<path d="M5.70168 5.72V1.98C3.66668 2.40166 2.33751 3.75833 1.95251 5.83H5.72001C5.71085 5.79333 5.70168 5.75666 5.70168 5.72Z" fill="#EFEEE0" fill-opacity="0.25"/>
<path d="M14.8683 1.83333H11.6875V5.83H14.8683V1.83333Z" fill="#EFEEE0" fill-opacity="0.25"/>
<path d="M16.2341 5.83001H20.0475C19.6625 3.74001 18.315 2.37417 16.2433 1.97084V5.80251C16.2433 5.81167 16.2341 5.82084 16.2341 5.83001Z" fill="#EFEEE0" fill-opacity="0.25"/>
<path d="M16.2433 20.0292C18.2508 19.635 19.5708 18.3517 20.0016 16.3717H16.2433V20.0292Z" fill="#EFEEE0" fill-opacity="0.25"/>
<path d="M14.8683 16.3717H11.6875V20.1667H14.8683V16.3717Z" fill="#EFEEE0" fill-opacity="0.25"/>
<path d="M11.6875 14.9967H20.1575C20.1667 14.9508 20.1667 14.8958 20.1667 14.8408V7.205H11.6875V14.9967Z" fill="#EFEEE0" fill-opacity="0.25"/>
<path d="M10.3125 16.3717H7.07666V20.1667H10.3125V16.3717Z" fill="#EFEEE0" fill-opacity="0.25"/>
<path d="M1.99829 16.3717C2.42912 18.3333 3.73079 19.6167 5.70162 20.02V16.3717H1.99829Z" fill="#EFEEE0" fill-opacity="0.25"/>
</svg>
